<?xml version="1.0" standalone="no"?><!DOCTYPE svg PUBLIC "-//W3C//DTD SVG 1.1//EN" "http://www.w3.org/Graphics/SVG/1.1/DTD/svg11.dtd"><svg t="1585718469504" class="icon" viewBox="0 0 1024 1024" version="1.1" xmlns="http://www.w3.org/2000/svg" p-id="3988" xmlns:xlink="http://www.w3.org/1999/xlink" width="200" height="200"><defs><style type="text/css"></style></defs><path d="M867.801 191.182l-711.612 0c-33.885 0-46.59 8.476-46.59 46.59l0 495.586c0 38.116 12.71 46.59 46.59 46.59l707.373 0c33.885 0 46.59-8.476 46.59-46.59l0-495.586c4.235-38.116-8.476-46.59-42.363-46.59l0 0zM804.267 237.779c-105.892 97.424-266.859 262.619-283.799 275.324-4.235 4.235-8.476 4.235-16.942 0-21.174-16.942-194.846-182.138-292.267-275.324l593.003 0zM156.199 733.368l0-478.639 254.144 241.436c25.414 25.414 42.363 38.116 55.061 50.829l0 0c16.942 8.476 29.654 12.71 46.59 12.71s29.654-4.235 46.59-12.71l0-4.235c25.414-16.942 105.892-101.655 309.206-288.03l0 478.639-711.612 0zM156.199 733.368z" p-id="3989"></path></svg>