<?xml version="1.0" standalone="no"?><!DOCTYPE svg PUBLIC "-//W3C//DTD SVG 1.1//EN" "http://www.w3.org/Graphics/SVG/1.1/DTD/svg11.dtd"><svg t="1585631258607" class="icon" viewBox="0 0 1024 1024" version="1.1" xmlns="http://www.w3.org/2000/svg" p-id="2713" xmlns:xlink="http://www.w3.org/1999/xlink" width="200" height="200"><defs><style type="text/css"></style></defs><path d="M170.666667 128h260.74074c23.608889 0 42.666667 19.057778 42.666667 42.666667v260.74074c0 23.608889-19.057778 42.666667-42.666667 42.666667H170.666667c-23.608889 0-42.666667-19.057778-42.666667-42.666667V170.666667c0-23.608889 19.057778-42.666667 42.666667-42.666667zM170.666667 549.925926h260.74074c23.608889 0 42.666667 19.057778 42.666667 42.666667v260.74074c0 23.608889-19.057778 42.666667-42.666667 42.666667H170.666667c-23.608889 0-42.666667-19.057778-42.666667-42.666667V592.592593c0-23.608889 19.057778-42.666667 42.666667-42.666667zM592.592593 128h260.74074c23.608889 0 42.666667 19.057778 42.666667 42.666667v260.74074c0 23.608889-19.057778 42.666667-42.666667 42.666667H592.592593c-23.608889 0-42.666667-19.057778-42.666667-42.666667V170.666667c0-23.608889 19.057778-42.666667 42.666667-42.666667zM571.259259 896c-11.757037 0-21.333333-9.576296-21.333333-21.333333v-192.474074c0-11.757037 9.576296-21.333333 21.333333-21.333334s21.333333 9.576296 21.333334 21.333334v192.474074c0 11.757037-9.576296 21.333333-21.333334 21.333333zM672.426667 896c-11.757037 0-21.333333-9.576296-21.333334-21.333333v-192.474074c0-11.757037 9.576296-21.333333 21.333334-21.333334s21.333333 9.576296 21.333333 21.333334v192.474074c0 11.757037-9.576296 21.333333-21.333333 21.333333zM874.666667 896c-11.757037 0-21.333333-9.576296-21.333334-21.333333v-303.407408c0-11.757037 9.576296-21.333333 21.333334-21.333333s21.333333 9.576296 21.333333 21.333333v303.407408c0 11.757037-9.576296 21.333333-21.333333 21.333333zM773.499259 896c-11.757037 0-21.333333-9.576296-21.333333-21.333333v-303.407408c0-11.757037 9.576296-21.333333 21.333333-21.333333s21.333333 9.576296 21.333334 21.333333v303.407408c0 11.757037-9.481481 21.333333-21.333334 21.333333z" p-id="2714"></path></svg>