<?xml version="1.0" standalone="no"?><!DOCTYPE svg PUBLIC "-//W3C//DTD SVG 1.1//EN" "http://www.w3.org/Graphics/SVG/1.1/DTD/svg11.dtd"><svg t="1585632297042" class="icon" viewBox="0 0 1024 1024" version="1.1" xmlns="http://www.w3.org/2000/svg" p-id="8561" xmlns:xlink="http://www.w3.org/1999/xlink" width="200" height="200"><defs><style type="text/css"></style></defs><path d="M512 452.096c36.352 0 66.56-29.696 66.56-66.56 0-36.352-29.696-66.56-66.56-66.56s-66.56 29.696-66.56 66.56 30.208 66.56 66.56 66.56z" p-id="8562"></path><path d="M753.664 912.384h-170.496v-146.944c182.784-34.304 314.88-193.024 314.88-379.392C898.048 173.056 724.992 0 512 0S125.952 173.056 125.952 386.048c0 96.768 35.84 188.928 101.376 260.608 64 69.632 150.528 113.152 243.712 123.392v142.848H301.056c-30.72 0-55.808 25.088-55.808 55.808S270.336 1024 301.056 1024h452.608c30.72 0 55.808-25.088 55.808-55.808s-25.088-55.808-55.808-55.808zM512 111.616c151.04 0 274.432 122.88 274.432 274.432S663.552 660.48 512 660.48s-274.432-122.88-274.432-274.432S360.96 111.616 512 111.616z" p-id="8563"></path></svg>