<?xml version="1.0" standalone="no"?><!DOCTYPE svg PUBLIC "-//W3C//DTD SVG 1.1//EN" "http://www.w3.org/Graphics/SVG/1.1/DTD/svg11.dtd"><svg t="1587140812111" class="icon" viewBox="0 0 1024 1024" version="1.1" xmlns="http://www.w3.org/2000/svg" p-id="11464" xmlns:xlink="http://www.w3.org/1999/xlink" width="200" height="200"><defs><style type="text/css"></style></defs><path d="M921.6 238.92992H785.07008V204.8a34.24256 34.24256 0 0 0-34.14016-34.12992H614.4A34.23232 34.23232 0 0 0 580.27008 204.8v34.12992H102.4V307.2h477.87008v34.12992c0 18.76992 15.36 34.14016 34.12992 34.14016h136.52992a34.2528 34.2528 0 0 0 34.14016-34.14016V307.2H921.6v-68.27008zM921.6 477.87008H443.72992v-34.14016c0-18.75968-15.36-34.12992-34.12992-34.12992H273.07008a34.24256 34.24256 0 0 0-34.14016 34.12992v34.14016H102.4v68.25984h136.52992v34.14016A34.24256 34.24256 0 0 0 273.07008 614.4H409.6a34.24256 34.24256 0 0 0 34.12992-34.12992v-34.14016H921.6v-68.25984zM921.6 716.8H716.8v-34.12992a34.24256 34.24256 0 0 0-34.12992-34.14016H546.12992A34.24256 34.24256 0 0 0 512 682.67008V716.8H102.4v68.27008h409.6V819.2a34.24256 34.24256 0 0 0 34.12992 34.12992h136.54016c18.75968 0 34.12992-15.36 34.12992-34.12992v-34.12992h204.8V716.8z" p-id="11465"></path></svg>